#define iconify_width 16
#define iconify_height 16
static unsigned char iconify_bits[] = {
   0xe0, 0x07, 0xf8, 0x1f, 0xfc, 0x3f, 0xfe, 0x7f, 0xfe, 0x7f, 0xff, 0xff,
   0xef, 0xf7, 0xdf, 0xfb, 0xbf, 0xfd, 0x7f, 0xfe, 0xff, 0xff, 0xfe, 0x7f,
   0xfe, 0x7f, 0xfc, 0x3f, 0xf8, 0x1f, 0xe0, 0x07 };
