<?xml version="1.0" encoding="UTF-8" standalone="no"?>
<svg
   xmlns:dc="http://purl.org/dc/elements/1.1/"
   xmlns:cc="http://creativecommons.org/ns#"
   xmlns:rdf="http://www.w3.org/1999/02/22-rdf-syntax-ns#"
   xmlns:svg="http://www.w3.org/2000/svg"
   xmlns="http://www.w3.org/2000/svg"
   xmlns:sodipodi="http://sodipodi.sourceforge.net/DTD/sodipodi-0.dtd"
   xmlns:inkscape="http://www.inkscape.org/namespaces/inkscape"
   width="16"
   version="1.1"
   height="16"
   id="svg2"
   sodipodi:docname="indicator-sensors-memory.svg"
   inkscape:version="0.92.1 r15371">
  <metadata
     id="metadata8">
    <rdf:RDF>
      <cc:Work
         rdf:about="">
        <dc:format>image/svg+xml</dc:format>
        <dc:type
           rdf:resource="http://purl.org/dc/dcmitype/StillImage" />
        <dc:title></dc:title>
      </cc:Work>
    </rdf:RDF>
  </metadata>
  <sodipodi:namedview
     pagecolor="#ffffff"
     bordercolor="#666666"
     borderopacity="1"
     objecttolerance="10"
     gridtolerance="10"
     guidetolerance="10"
     inkscape:pageopacity="0"
     inkscape:pageshadow="2"
     inkscape:window-width="748"
     inkscape:window-height="480"
     id="namedview6"
     showgrid="false"
     inkscape:zoom="10.727273"
     inkscape:cx="11"
     inkscape:cy="11"
     inkscape:window-x="416"
     inkscape:window-y="126"
     inkscape:window-maximized="0"
     inkscape:current-layer="svg2" />
  <defs
     id="defs8">
    <style
       type="text/css"
       id="current-color-scheme">
   .ColorScheme-Text { color:#5c616c; } .ColorScheme-Highlight { color:#5294e2; } .ColorScheme-ButtonBackground { color:#d3dae3; }
  </style>
  </defs>
  <path
     style="color:#d3dae3;fill:currentColor"
     d="m 3.499975,1.5e-4 c -0.554,0 -1,0.446 -1,1 v 1 1 1 1 1 h 2 v -2 -1 -1 -2 z m 2,0 v 1 8 1 4 1 1 h 2 1 a 1,1 0 0 1 1,-1 1,1 0 0 1 0.99805,0.9297 1.5,1.5 0 0 1 0.002,0.07 h 1 0.5 0.5 c 0.554,0 1,-0.446 1,-1 v -0.5 -0.5 -12 -0.5 -0.5 c 0,-0.554 -0.446,-1 -1,-1 h -0.5 -0.5 -1 a 1,1 0 0 1 -0.0059,0.1 1,1 0 0 1 -0.9941,0.9003 1,1 0 0 1 -1,-1 h -1 -1 -1 z m 2,3 h 4 v 2 h -4 z m 0,4 h 4 v 2 h -4 z m -5,1 v 1 1 1 1 1 1 1 c 0,0.554 0.446,1 1,1 h 1 v -2 -1 -1 -1 -2 -1 z m 5,3 h 4 v 2 h -4 z"
     id="path4"
     class="ColorScheme-ButtonBackground"
     inkscape:connector-curvature="0" />
</svg>
