#define desk_width 16
#define desk_height 16
static unsigned char desk_bits[] = {
   0xfe, 0x7f, 0xff, 0xff, 0xff, 0xff, 0xcf, 0xf3, 0x87, 0xe1, 0x87, 0xe1,
   0xcf, 0xf3, 0xff, 0xff, 0xff, 0xff, 0xcf, 0xf3, 0x87, 0xe1, 0x87, 0xe1,
   0xcf, 0xf3, 0xff, 0xff, 0xff, 0xff, 0xfe, 0x7f };
