#define max_width 16
#define max_height 16
static unsigned char max_bits[] = {
   0xfe, 0x7f, 0xff, 0xff, 0xff, 0xff, 0x0f, 0xf0, 0xe7, 0xe7, 0xf7, 0xef,
   0xf7, 0xef, 0xf7, 0xef, 0xf7, 0xef, 0xf7, 0xef, 0xf7, 0xef, 0xe7, 0xe7,
   0x0f, 0xf0, 0xff, 0xff, 0xff, 0xff, 0xfe, 0x7f };
