#define shade_width 16
#define shade_height 16
static unsigned char shade_bits[] = {
   0xfe, 0x7f, 0xff, 0xff, 0xff, 0xff, 0xff, 0xff, 0x7f, 0xfe, 0x3f, 0xfc,
   0x1f, 0xf8, 0x8f, 0xf1, 0xc7, 0xe3, 0xe3, 0xc7, 0xf3, 0xcf, 0xff, 0xff,
   0xff, 0xff, 0xff, 0xff, 0xff, 0xff, 0xfe, 0x7f };
