#define close_width 16
#define close_height 16
static unsigned char close_bits[] = {
   0xe0, 0x07, 0xf8, 0x1f, 0xfc, 0x3f, 0xfe, 0x7f, 0xee, 0x77, 0xdf, 0xfb,
   0xbf, 0xfd, 0x7f, 0xfe, 0x7f, 0xfe, 0xbf, 0xfd, 0xdf, 0xfb, 0xee, 0x77,
   0xfe, 0x7f, 0xfc, 0x3f, 0xf8, 0x1f, 0xe0, 0x07 };
