#define bullet_width 16
#define bullet_height 16
static unsigned char bullet_bits[] = {
   0xf8, 0x1f, 0xfc, 0x3f, 0x9c, 0x3f, 0x1c, 0x3f, 0x3c, 0x3e, 0x7c, 0x3c,
   0xfc, 0x38, 0xfc, 0x31, 0xfc, 0x31, 0xfc, 0x38, 0x7c, 0x3c, 0x3c, 0x3e,
   0x1c, 0x3f, 0x9c, 0x3f, 0xfc, 0x3f, 0xf8, 0x1f };
