#define close_width 16
#define close_height 16
static unsigned char close_bits[] = {
   0xfe, 0x7f, 0xff, 0xff, 0xff, 0xff, 0xe7, 0xe7, 0xc7, 0xe3, 0x8f, 0xf1,
   0x1f, 0xf8, 0x3f, 0xfc, 0x3f, 0xfc, 0x1f, 0xf8, 0x8f, 0xf1, 0xc7, 0xe3,
   0xe7, 0xe7, 0xff, 0xff, 0xff, 0xff, 0xfe, 0x7f };
