#define desk_toggled_width 16
#define desk_toggled_height 16
static unsigned char desk_toggled_bits[] = {
   0xfe, 0x7f, 0xff, 0xff, 0xff, 0xff, 0xff, 0xff, 0x9f, 0xf9, 0x0f, 0xf0,
   0x0f, 0xf0, 0x9f, 0xf9, 0x9f, 0xf9, 0x0f, 0xf0, 0x0f, 0xf0, 0x9f, 0xf9,
   0xff, 0xff, 0xff, 0xff, 0xff, 0xff, 0xfe, 0x7f };
