#define close_width 11
#define close_height 11
static unsigned char close_bits[] = {
   0x00, 0x00, 0x50, 0x00, 0x50, 0x00, 0x50, 0x00, 0xde, 0x03, 0x00, 0x00,
   0xde, 0x03, 0x50, 0x00, 0x50, 0x00, 0x50, 0x00, 0x00, 0x00 };
